<?xml version="1.0" encoding="UTF-8"?>
<svg version="1.1" xmlns="http://www.w3.org/2000/svg" width="738" height="387">
<path d="M0 0 C243.54 0 487.08 0 738 0 C738 127.71 738 255.42 738 387 C494.46 387 250.92 387 0 387 C0 259.29 0 131.58 0 0 Z " fill="#FEFEFF" transform="translate(0,0)"/>
<path d="M0 0 C1.27028416 1.03816396 2.52163932 2.10005516 3.75 3.1875 C4.28367187 3.64253906 4.81734375 4.09757813 5.3671875 4.56640625 C13.89844428 13.03135792 16.32807861 25.59431768 16.375 37.125 C16.0891523 52.40270325 13.55767004 66.29964402 3.09375 78.046875 C-3.4694842 84.30052268 -10.95242618 86.42141927 -19.875 86.6875 C-27.70307784 86.48191412 -31.81618326 84.47671116 -38.25 80.1875 C-38.25 89.7575 -38.25 99.3275 -38.25 109.1875 C-40.68375 109.80625 -43.1175 110.425 -45.625 111.0625 C-46.36927246 111.25312012 -47.11354492 111.44374023 -47.88037109 111.64013672 C-53.32295441 113.0116621 -58.72548424 114.08259685 -64.25 115.1875 C-64.25 75.2575 -64.25 35.3275 -64.25 -5.8125 C-56.66 -5.8125 -49.07 -5.8125 -41.25 -5.8125 C-40.92 -3.8325 -40.59 -1.8525 -40.25 0.1875 C-39.50234375 -0.23402344 -38.7546875 -0.65554687 -37.984375 -1.08984375 C-36.99953125 -1.63769531 -36.0146875 -2.18554688 -35 -2.75 C-34.02546875 -3.29527344 -33.0509375 -3.84054688 -32.046875 -4.40234375 C-21.19209062 -9.87521688 -9.49567558 -6.72084818 0 0 Z " fill="#645DFF" transform="translate(458.25,168.8125)"/>
<path d="M0 0 C11.03145392 6.99426051 14.93869219 15.5296726 18 28 C19 35 19 35 19 52 C2.5 52 -14 52 -31 52 C-28.71665755 60.50860099 -28.71665755 60.50860099 -23 65 C-11.57146137 70.56256305 2.5335369 66.27613231 14 63 C14 69.93 14 76.86 14 84 C4.59262007 87.54995469 -3.30044074 89.49314306 -13.375 89.5 C-14.27686035 89.50580078 -15.1787207 89.51160156 -16.10791016 89.51757812 C-27.6164918 89.30675963 -37.08091629 85.62156653 -45.625 77.9375 C-56.60376963 66.35577734 -57.74846865 51.09174187 -57.375 35.95703125 C-56.70778816 23.50161585 -50.73285588 12.34802741 -41.875 3.6875 C-30.1036495 -5.49415339 -13.033044 -7.57839094 0 0 Z " fill="#635BFF" transform="translate(536,166)"/>
<path d="M0 0 C0 7.59 0 15.18 0 23 C-9.66666667 20.85185185 -9.66666667 20.85185185 -14.5 19.375 C-21.23295587 17.51730769 -27.59200414 16.6926473 -34 20 C-34.33425735 22.37374861 -34.33425735 22.37374861 -34 25 C-31.37629927 27.34800863 -28.71835332 28.66674206 -25.4453125 29.90234375 C-24.15173828 30.40217773 -24.15173828 30.40217773 -22.83203125 30.91210938 C-21.03546975 31.59262509 -19.23859721 32.27232027 -17.44140625 32.95117188 C-8.81796583 36.28616858 -2.43683961 40.41137691 3 48 C6.10630089 55.29305427 6.03287396 62.94993581 3.25 70.3125 C-0.29010371 78.17939713 -5.20749857 82.72962324 -13.23242188 85.875 C-19.54417288 87.87972489 -25.27132117 88.47355372 -31.875 88.375 C-32.83591553 88.36774902 -33.79683105 88.36049805 -34.78686523 88.35302734 C-43.90507965 88.17579509 -51.55261915 86.37895234 -60 83 C-60 74.75 -60 66.5 -60 58 C-59.34 58 -58.68 58 -58 58 C-58 58.66 -58 59.32 -58 60 C-57.28457031 60.12246094 -56.56914062 60.24492187 -55.83203125 60.37109375 C-52.95191708 61.01067773 -50.42894837 61.98065545 -47.6875 63.0625 C-40.18239831 65.64208663 -32.83527058 65.57034786 -25 65 C-24.34 64.67 -23.68 64.34 -23 64 C-22.49874717 60.66857722 -22.49874717 60.66857722 -23 57 C-27.12720104 53.64429702 -31.18262487 52.14516544 -36.25 50.6875 C-45.58995366 47.79273443 -53.33652467 43.14124579 -59 35 C-62.1109442 28.50133721 -62.18142925 21.09485673 -60.1953125 14.2109375 C-56.97362857 7.03435881 -51.71806091 1.07450617 -44.44140625 -2.125 C-41.96951162 -2.90757851 -39.54406051 -3.50567669 -37 -4 C-35.2984375 -4.3403125 -35.2984375 -4.3403125 -33.5625 -4.6875 C-21.42093878 -5.75254923 -11.43466704 -4.28800014 0 0 Z " fill="#645CFF" transform="translate(244,167)"/>
<path d="M0 0 C0 7.26 0 14.52 0 22 C6.6 22 13.2 22 20 22 C20 29.26 20 36.52 20 44 C13.4 44 6.8 44 0 44 C0.07406327 49.6058231 0.15694876 55.21006898 0.26245117 60.81518555 C0.29565962 62.72102631 0.32370425 64.62696446 0.34643555 66.53295898 C0.38005668 69.27630015 0.43237595 72.01875222 0.48828125 74.76171875 C0.49467117 75.61086349 0.5010611 76.46000824 0.50764465 77.33488464 C0.62340817 82.01622454 0.95393985 85.20421225 4 89 C7.00313748 90.50156874 9.79067522 90.09281204 13.125 90.0625 C16.528125 90.0315625 16.528125 90.0315625 20 90 C20 96.6 20 103.2 20 110 C10.51918147 114.06320794 -0.27568035 115.16223706 -10.31640625 111.93359375 C-16.64262467 108.38897976 -21.30952678 103.12142744 -24.05807495 96.42037964 C-25.2133933 92.22511233 -25.26543143 88.47586009 -25.22705078 84.14892578 C-25.22734283 83.27998184 -25.22763489 82.4110379 -25.22793579 81.51576233 C-25.22654838 78.65884226 -25.21101493 75.80218672 -25.1953125 72.9453125 C-25.19158028 70.95848737 -25.18873429 68.97166039 -25.18673706 66.98483276 C-25.17911709 61.7668343 -25.15948263 56.54894796 -25.1373291 51.33099365 C-25.11683543 46.00192786 -25.10772781 40.67284388 -25.09765625 35.34375 C-25.07623521 24.89578419 -25.04211901 14.44790144 -25 4 C-23.10503195 3.51095771 -21.20898433 3.02609756 -19.3125 2.54296875 C-18.25675781 2.27250732 -17.20101563 2.0020459 -16.11328125 1.72338867 C-10.72940943 0.47241532 -5.51630064 0 0 0 Z " fill="#635BFF" transform="translate(279,142)"/>
<path d="M0 0 C0 7.92 0 15.84 0 24 C-3.19010417 24.13020833 -6.38020833 24.26041667 -9.5703125 24.390625 C-13.56050731 25.099589 -16.55355954 25.66702136 -19 29 C-19.94017487 33.62257329 -19.8388393 38.25529726 -19.8046875 42.953125 C-19.81594008 44.33748688 -19.82982182 45.72182967 -19.84622192 47.10614014 C-19.8822579 50.74282876 -19.88263417 54.37867673 -19.87554932 58.01550293 C-19.87463635 61.72923824 -19.90749545 65.44265855 -19.9375 69.15625 C-19.99136034 76.43768631 -20.00442233 83.7183231 -20 91 C-28.58 91 -37.16 91 -46 91 C-46 61.3 -46 31.6 -46 1 C-38.41 1 -30.82 1 -23 1 C-23 2.98 -23 4.96 -23 7 C-22.45730469 6.57847656 -21.91460937 6.15695313 -21.35546875 5.72265625 C-20.64003906 5.17480469 -19.92460937 4.62695312 -19.1875 4.0625 C-18.47980469 3.51722656 -17.77210938 2.97195312 -17.04296875 2.41015625 C-11.41518788 -1.47441142 -7.79708245 0 0 0 Z " fill="#655DFF" transform="translate(353,163)"/>
<path d="M0 0 C8.58 0 17.16 0 26 0 C26 29.7 26 59.4 26 90 C17.42 90 8.84 90 0 90 C0 60.3 0 30.6 0 0 Z " fill="#655DFF" transform="translate(359,164)"/>
<path d="M0 0 C5.35852213 4.34474767 8.73092354 8.93610146 9.54907227 15.8840332 C10.13293551 25.27140982 10.33180259 34.10551975 4.3125 41.875 C0.06662796 45.92338961 -2.68325685 47.16595538 -8.5859375 47.1015625 C-12.73901826 46.6538326 -15.78758996 44.77491004 -18.6875 41.875 C-18.91203744 38.96941006 -19.01567082 36.16196598 -19.0234375 33.25390625 C-19.0300943 32.39820541 -19.0367511 31.54250458 -19.04360962 30.66087341 C-19.05374372 28.84937696 -19.05842641 27.03784313 -19.05810547 25.22631836 C-19.06247765 22.4516867 -19.09878482 19.67864675 -19.13671875 16.90429688 C-19.14258692 15.14583879 -19.14655631 13.38737312 -19.1484375 11.62890625 C-19.16280853 10.79758682 -19.17717957 9.9662674 -19.19198608 9.10975647 C-19.14623551 3.35398242 -19.14623551 3.35398242 -16.76806641 0.87084961 C-11.45294719 -1.67319771 -5.49445184 -2.30000309 0 0 Z " fill="#FCFCFF" transform="translate(438.6875,186.125)"/>
<path d="M0 0 C0 6.93 0 13.86 0 21 C-3.361875 21.825 -6.72375 22.65 -10.1875 23.5 C-11.76374146 23.89155273 -11.76374146 23.89155273 -13.37182617 24.29101562 C-14.21205322 24.49404297 -15.05228027 24.69707031 -15.91796875 24.90625 C-16.77156982 25.11572266 -17.6251709 25.32519531 -18.50463867 25.54101562 C-21 26 -21 26 -26 26 C-26 19.4 -26 12.8 -26 6 C-14.28125 3.0703125 -14.28125 3.0703125 -12.15234375 2.54003906 C-10.68496711 2.17186334 -9.21885946 1.79860159 -7.75390625 1.42089844 C-2.21064815 0 -2.21064815 0 0 0 Z " fill="#655DFF" transform="translate(385,129)"/>
<path d="M0 0 C4.89434784 2.40100083 7.15529383 4.8758162 9 10 C9 11.98 9 13.96 9 16 C0.42 16 -8.16 16 -17 16 C-17 7.75675676 -17 7.75675676 -13 3 C-9.05061527 -0.29115394 -4.99650314 -0.87193878 0 0 Z " fill="#FBFBFF" transform="translate(522,183)"/>
</svg>
